<svg width="279" height="73" viewBox="0 0 279 73" fill="none" xmlns="http://www.w3.org/2000/svg">
<g clip-path="url(#clip0_1_25)">
<path d="M277.06 42.299C273.74 35.056 276.814 28.89 276.814 28.89V28.884C277.544 27.081 277.572 25.025 276.712 23.152C275.855 21.281 274.28 19.959 272.431 19.335C267.402 17.748 265.204 15.826 261.906 8.631C259.066 2.442 254.595 3.967 250.31 2.901C247.388 -1.965 237.806 -0.0870025 228.921 3.987C220.032 8.063 212.358 14.097 214.142 19.489C212.152 23.43 208.078 25.823 210.917 32.013C214.214 39.209 214.241 42.126 212.159 46.973H212.161C211.427 48.782 211.401 50.838 212.259 52.71C213.118 54.582 214.695 55.904 216.54 56.527L216.542 56.529C216.542 56.529 223.22 58.222 226.542 65.467C229.165 71.188 234.085 74.548 242.081 70.88C247.923 68.2 249.089 65.282 251.456 62.91C250.888 62.296 250.237 61.665 249.585 61.192C247.776 59.879 246.837 60.199 244.233 58.427C242.624 57.333 241.061 56.124 239.395 55.118C237.893 54.21 237.559 53.116 236.577 51.732C235.655 50.433 234.575 49.377 233.466 48.251C232.54 47.312 231.8 46.228 230.823 45.327C229.253 43.876 226.985 42.132 227.014 41.901C227.043 41.67 227.702 40.764 228.327 40.462C228.954 40.16 229.202 40.363 229.202 40.363C229.202 40.363 229.893 39.892 231.8 40.646C233.932 41.4756 235.794 42.8786 237.179 44.7C237.179 44.7 238.253 45.575 239.177 46.658C239.572 47.12 239.488 46.36 239.433 46.192C239.376 46.025 239.39 44.722 238.609 43.21C237.83 41.696 235.546 37.679 233.933 35.683C231.8 33.042 230.335 30.003 228.353 27.267C227.613 26.251 226.121 23.864 226.437 22.964C226.437 22.964 226.22 22.708 226.417 22.316C226.538 22.0783 226.709 21.8699 226.919 21.7056C227.129 21.5413 227.372 21.425 227.632 21.365C228.263 21.207 228.589 21.461 228.757 21.586C228.757 21.586 229.501 21.563 230.622 23.182C231.919 25.057 233.104 27 234.483 28.817C235.915 30.704 237.462 32.51 238.751 34.501C240.04 36.485 240.868 36.573 241.062 36.246C241.253 35.916 239.996 33.735 239.177 32.683C236.189 28.839 234.157 24.371 231.64 20.23C231.027 19.218 230.818 18.219 231.12 17.769C231.12 17.769 231.003 17.354 231.429 16.834C231.853 16.313 232.935 15.917 233.351 16.181C233.351 16.181 234.081 16.085 234.798 17.318C235.517 18.546 237.411 21.843 238.7 23.726C239.991 25.61 241.415 27.558 242.796 29.986C244.179 32.418 245.235 34.031 245.632 34.167C246.029 34.303 246.605 34.332 246.462 33.977C245.718 32.123 244.733 30.347 243.915 28.52C242.647 25.682 241.507 22.799 239.97 20.091C239.214 18.762 238.579 17.504 239.115 16.722C239.115 16.722 239.074 16.407 239.773 15.948C240.47 15.491 241.15 15.524 241.462 15.827C241.462 15.827 242.021 15.549 243.446 18.475C244.987 21.646 246.934 24.612 248.397 27.825C249.7 30.679 251.436 34.326 251.731 34.498C252.028 34.669 252.379 34.448 252.294 33.96C251.597 30.047 249.655 26.418 248.372 22.712C247.747 20.912 248.02 19.663 248.481 19.274C248.481 19.274 248.778 18.595 249.499 18.547C250.218 18.497 250.308 18.845 250.308 18.845C250.308 18.845 250.761 19.253 251.06 19.809C251.324 20.304 252.613 23.128 253.162 24.81C253.916 27.121 254.947 29.048 255.662 31.372C256.254 33.291 257.123 35.154 258.062 36.954C259.394 39.512 261.421 45.751 262.093 48.482C262.767 51.216 262.378 53.273 263.353 55.197C263.864 56.206 264.833 57.905 265.642 59.296C267.163 59.063 268.902 58.587 271.027 57.612C279.022 53.939 279.685 48.021 277.06 42.299Z" fill="#E60C12"/>
<path d="M30.06 23.76H38.52C40.32 23.76 41.04 24.99 41.04 26.22C41.04 27.51 40.29 28.68 38.52 28.68H15.48C13.71 28.68 12.96 27.51 12.96 26.22C12.96 24.99 13.68 23.76 15.48 23.76H23.94V18.21H21.87C16.86 18.21 13.83 14.52 13.83 10.41V9.66C13.83 5.55 16.86 1.86 21.87 1.86H32.1C37.11 1.86 40.17 5.55 40.17 9.66V10.41C40.17 14.52 37.11 18.21 32.1 18.21H30.06V23.76ZM20.07 9.63V10.44C20.07 12.12 21.42 13.35 23.43 13.35H30.54C32.55 13.35 33.93 12.12 33.93 10.44V9.63C33.93 7.95 32.55 6.72 30.54 6.72H23.43C21.42 6.72 20.07 7.95 20.07 9.63ZM51.27 6.03H67.53C69.27 6.03 69.93 6.93 69.93 8.13C69.93 9.36 69.24 10.32 67.53 10.32H48.3C45.3 10.32 44.28 9.06 44.28 6.75V4.2C44.28 2.19 45.75 1.29 47.37 1.29C49.02 1.29 50.4 2.22 50.4 4.2V5.46C50.4 5.88 50.58 6.03 51.27 6.03ZM45.3 11.58H68.7C70.32 11.58 71.04 12.54 71.04 13.77C71.04 15.03 70.29 15.93 68.7 15.93H45.3C43.71 15.93 42.96 15.03 42.96 13.77C42.96 12.54 43.68 11.58 45.3 11.58ZM68.97 29.28H47.58C45 29.28 43.8 27.57 43.8 25.56V25.32C43.8 23.28 44.97 21.81 47.58 21.81H63.63V21.21C63.63 20.94 63.48 20.76 63.09 20.76H45.81C44.7 20.76 44.1 19.95 44.1 19.08C44.1 18.21 44.61 17.4 45.81 17.4H66.45C69 17.4 69.81 18.36 69.81 20.19V24.84H50.88C50.46 24.84 50.25 25.05 50.25 25.38C50.25 25.68 50.46 25.89 50.88 25.89H68.97C70.2 25.89 70.65 26.73 70.65 27.6C70.65 28.47 70.23 29.28 68.97 29.28ZM100.2 29.28H94.2V4.08C94.2 2.13 95.61 1.11 97.2 1.11C98.79 1.11 100.2 2.13 100.2 4.08V29.28ZM73.74 20.64V9.63C73.74 4.44 77.34 1.59 82.26 1.59C87.18 1.59 90.81 4.41 90.81 9.63V20.64C90.81 25.89 87.18 28.71 82.29 28.71C77.37 28.71 73.74 25.89 73.74 20.64ZM79.59 9.42V20.85C79.59 22.83 80.88 23.79 82.26 23.79C83.64 23.79 84.99 22.83 84.99 20.85V9.42C84.99 7.5 83.64 6.48 82.26 6.51C80.88 6.54 79.59 7.53 79.59 9.42ZM130.778 18.24C131.618 16.14 132.038 13.47 132.038 9.72V7.92C132.038 7.5 131.768 7.17 131.288 7.17H114.998C113.198 7.17 112.358 5.82 112.358 4.59C112.358 3.39 113.168 2.01 114.998 2.01H133.328C136.868 2.01 137.948 3.36 137.948 6.3V9.6C137.948 14.28 137.288 17.79 136.388 19.77C135.548 21.48 133.448 22.17 131.918 21.42C130.718 20.85 130.238 19.59 130.778 18.24ZM113.948 23.61H136.868C138.728 23.61 139.448 24.93 139.448 26.16C139.448 27.42 138.698 28.68 136.868 28.68H113.948C112.118 28.68 111.368 27.42 111.368 26.16C111.368 24.93 112.088 23.61 113.948 23.61ZM167.858 5.91H168.788C170.618 5.91 171.158 7.32 171.158 8.52C171.158 9.75 170.588 11.13 168.788 11.13H167.858V15.48H161.858V4.08C161.858 2.13 163.268 1.11 164.858 1.11C166.448 1.11 167.858 2.13 167.858 4.08V5.91ZM157.838 14.88H145.868C143.348 14.88 142.328 13.62 142.328 11.46V4.41C142.328 2.61 143.678 1.71 145.298 1.71C146.948 1.71 148.208 2.64 148.208 4.32V9.63C148.208 10.11 148.388 10.26 148.868 10.26H157.838C159.578 10.26 160.088 11.4 160.088 12.54C160.088 13.71 159.548 14.88 157.838 14.88ZM150.188 25.65H167.108C168.308 25.65 168.818 26.64 168.818 27.54C168.818 28.38 168.338 29.28 167.108 29.28H147.428C144.698 29.28 143.198 27.48 143.198 25.35V24.63C143.198 22.56 144.698 21.18 147.428 21.18H161.948V20.43C161.948 20.07 161.858 19.95 161.468 19.95H145.178C144.008 19.95 143.528 19.05 143.528 18.15C143.528 17.31 144.038 16.38 145.178 16.38H164.468C167.078 16.38 168.038 17.16 168.038 19.5V24.42H150.188C149.738 24.42 149.558 24.66 149.558 24.96V25.11C149.558 25.41 149.738 25.65 150.188 25.65ZM186.826 21.36H180.706V4.8C180.706 2.85 182.176 1.83 183.766 1.83C185.326 1.83 186.826 2.88 186.826 4.8V21.36ZM180.556 25.8C180.556 23.94 181.756 22.77 183.766 22.77C185.776 22.77 186.976 23.97 186.976 25.8C186.976 27.63 185.776 28.83 183.766 28.83C181.756 28.83 180.556 27.66 180.556 25.8ZM196.729 21.36H190.609V4.8C190.609 2.85 192.079 1.83 193.669 1.83C195.229 1.83 196.729 2.88 196.729 4.8V21.36ZM190.459 25.8C190.459 23.94 191.659 22.77 193.669 22.77C195.679 22.77 196.879 23.97 196.879 25.8C196.879 27.63 195.679 28.83 193.669 28.83C191.659 28.83 190.459 27.66 190.459 25.8Z" fill="black"/>
<path d="M16.29 54.75C14.82 54.75 13.59 53.91 13.44 52.44C13.29 51 14.07 49.83 15.6 49.5C19.56 48.63 23.19 45.27 23.82 40.23C24.06 38.34 25.38 37.53 27 37.53C28.8 37.53 30.09 38.73 30.03 40.71C30 41.64 29.85 42.57 29.64 43.47C34.68 43.59 39.87 47.1 40.44 54.75H34.35C33.81 50.7 30.87 48.24 27.3 48.33C24.57 52.11 20.25 54.75 16.29 54.75ZM30.06 59.76H38.52C40.32 59.76 41.04 60.99 41.04 62.22C41.04 63.51 40.29 64.68 38.52 64.68H15.48C13.71 64.68 12.96 63.51 12.96 62.22C12.96 60.99 13.68 59.76 15.48 59.76H23.94V55.62C23.94 53.67 25.41 53.07 27 53.07C28.56 53.07 30.06 53.7 30.06 55.62V59.76ZM67.2 37.11C68.79 37.11 70.2 38.13 70.2 40.08V65.28H64.2V40.08C64.2 38.13 65.61 37.11 67.2 37.11ZM58.08 38.1C59.82 38.1 60.93 39.03 60.93 41.04V63.99H48.18C44.7 63.99 43.83 62.79 43.83 59.49V41.04C43.83 39 45.06 38.1 46.8 38.1C48.51 38.1 49.62 39.03 49.62 41.04V45.66H55.2V41.04C55.2 39 56.37 38.1 58.08 38.1ZM50.46 59.04H55.2V50.55H49.62V58.26C49.62 58.95 49.77 59.04 50.46 59.04ZM100.2 65.28H94.2V40.08C94.2 38.13 95.61 37.11 97.2 37.11C98.79 37.11 100.2 38.13 100.2 40.08V65.28ZM73.71 48.09V45.21C73.71 39.99 77.55 37.62 82.47 37.62C87.39 37.62 91.2 39.99 91.2 45.21V48.09C91.2 53.31 87.39 55.68 82.47 55.68C77.55 55.68 73.71 53.31 73.71 48.09ZM79.59 45V48.3C79.59 50.25 81.03 50.97 82.47 50.97C83.91 50.97 85.35 50.25 85.35 48.3V45C85.35 43.08 83.91 42.33 82.47 42.33C81.03 42.33 79.59 43.08 79.59 45ZM75.54 59.16H90.57C92.43 59.16 93.15 60.48 93.15 61.71C93.15 62.97 92.4 64.23 90.57 64.23H75.54C73.71 64.23 72.96 62.97 72.96 61.71C72.96 60.48 73.68 59.16 75.54 59.16ZM137.858 41.91H138.788C140.618 41.91 141.158 43.32 141.158 44.52C141.158 45.75 140.588 47.13 138.788 47.13H137.858V51.48H131.858V40.08C131.858 38.13 133.268 37.11 134.858 37.11C136.448 37.11 137.858 38.13 137.858 40.08V41.91ZM127.838 50.88H115.868C113.348 50.88 112.328 49.62 112.328 47.46V40.41C112.328 38.61 113.678 37.71 115.298 37.71C116.948 37.71 118.208 38.64 118.208 40.32V45.63C118.208 46.11 118.388 46.26 118.868 46.26H127.838C129.578 46.26 130.088 47.4 130.088 48.54C130.088 49.71 129.548 50.88 127.838 50.88ZM120.188 61.65H137.108C138.308 61.65 138.818 62.64 138.818 63.54C138.818 64.38 138.338 65.28 137.108 65.28H117.428C114.698 65.28 113.198 63.48 113.198 61.35V60.63C113.198 58.56 114.698 57.18 117.428 57.18H131.948V56.43C131.948 56.07 131.858 55.95 131.468 55.95H115.178C114.008 55.95 113.528 55.05 113.528 54.15C113.528 53.31 114.038 52.38 115.178 52.38H134.468C137.078 52.38 138.038 53.16 138.038 55.5V60.42H120.188C119.738 60.42 119.558 60.66 119.558 60.96V61.11C119.558 61.41 119.738 61.65 120.188 61.65Z" fill="black"/>
</g>
<defs>
<clipPath id="clip0_1_25">
<rect width="278.438" height="72.41" fill="white"/>
</clipPath>
</defs>
</svg>
