<svg xmlns="http://www.w3.org/2000/svg" width="278.438" height="72.41"><path fill="#FFF" stroke="#000" stroke-miterlimit="10" d="M-655.78-488.584h454v667h-454z"/><path fill="#E60C12" d="M264.599-207.17c-4.322-9.428-.32-17.456-.32-17.456v-.003c.952-2.349.984-5.031-.13-7.467-1.117-2.433-3.171-4.154-5.573-4.969-6.55-2.062-9.41-4.567-13.705-13.932-3.695-8.057-9.516-6.071-15.096-7.46-3.801-6.333-16.273-3.89-27.84 1.413-11.574 5.307-21.561 13.164-19.242 20.181-2.59 5.132-7.893 8.245-4.197 16.302 4.297 9.369 4.328 13.167 1.617 19.476h.002c-.951 2.353-.988 5.032.129 7.466 1.119 2.439 3.168 4.16 5.574 4.97v.004s8.695 2.205 13.02 11.634c3.415 7.449 9.818 11.822 20.229 7.05 8.457-3.881 9.375-8.148 13.305-11.391-.704-.751-1.501-1.508-2.294-2.083-2.36-1.713-3.581-1.298-6.97-3.601-2.096-1.425-4.125-2.995-6.299-4.308-1.951-1.18-2.389-2.606-3.664-4.406-1.203-1.694-2.609-3.067-4.05-4.533-1.204-1.222-2.175-2.634-3.44-3.807-2.047-1.886-4.998-4.158-4.961-4.458.038-.3.893-1.478 1.711-1.869.814-.398 1.137-.131 1.137-.131s.903-.616 3.379.368c2.812 1.11 5.168 2.872 7.004 5.278 0 0 1.398 1.136 2.605 2.548.508.601.402-.386.327-.604-.069-.22-.055-1.915-1.069-3.885-1.014-1.972-3.985-7.2-6.09-9.8-2.777-3.438-4.68-7.394-7.263-10.952-.962-1.326-2.904-4.434-2.493-5.604 0 0-.279-.334-.028-.846a2.412 2.412 0 0 1 1.585-1.237c.822-.205 1.24.125 1.464.288 0 0 .973-.033 2.427 2.076 1.689 2.439 3.233 4.971 5.029 7.333 1.865 2.457 3.876 4.811 5.557 7.4 1.674 2.587 2.753 2.701 3.008 2.27.248-.427-1.39-3.265-2.456-4.638-3.89-4.998-6.533-10.817-9.811-16.21-.799-1.317-1.069-2.618-.677-3.202 0 0-.149-.542.401-1.218.552-.675 1.961-1.191 2.499-.847 0 0 .951-.125 1.887 1.475.932 1.6 3.402 5.895 5.08 8.344 1.679 2.453 3.535 4.988 5.332 8.152 1.797 3.161 3.176 5.266 3.691 5.44.515.174 1.268.217 1.082-.249-.971-2.416-2.252-4.727-3.317-7.103-1.649-3.694-3.134-7.449-5.136-10.973-.984-1.732-1.809-3.372-1.114-4.386 0 0-.054-.414.858-1.008.908-.596 1.793-.55 2.195-.158 0 0 .734-.363 2.585 3.447 2.009 4.129 4.542 7.989 6.446 12.172 1.698 3.715 3.953 8.463 4.342 8.688.385.221.843-.066.732-.703-.908-5.094-3.437-9.818-5.11-14.642-.809-2.341-.452-3.968.146-4.478 0 0 .389-.881 1.324-.945.936-.063 1.055.388 1.055.388s.588.532.973 1.255c.347.643 2.025 4.324 2.738 6.51.981 3.008 2.328 5.517 3.257 8.542.771 2.502 1.9 4.924 3.122 7.269 1.736 3.33 4.373 11.449 5.252 15.006.879 3.559.371 6.239 1.64 8.74.732 1.454 2.202 4.011 3.308 5.904 1.595-.365 3.377-.952 5.438-1.896 10.407-4.777 11.271-12.48 7.853-19.931z"/><g fill="#232120"><path d="M72.733-217.787c.029-.049.055-.096.081-.145l5.784-10.274 5.785 10.274c.025.049.053.096.081.145l.101.179.019.008c1.129 1.764 3.482 2.982 6.212 2.982h2.014c.361 0 .805-.329.652-.654l-9.406-16.709a4.249 4.249 0 0 1-.424-1.835c0-.361.291-.652.653-.652h2.339c3.822 0 6.926-2.385 6.928-5.324a.653.653 0 0 0-.653-.654H65.226a.653.653 0 0 0-.652.654v4.67c0 .36.293.653.652.653h7.689c.359 0 .651.291.651.652a4.224 4.224 0 0 1-.423 1.835l-9.406 16.709c-.153.325.291.654.652.654h2.014c2.73 0 5.084-1.218 6.213-2.982l.017-.008.1-.178zM134.464-230.512v-4.608c-.002-2.941-3.102-5.325-6.928-5.325a.653.653 0 0 0-.652.654v4.885a8.58 8.58 0 0 1-.674 3.376l-11.189 23.924a.65.65 0 0 0 .652.652h1.752c2.952 0 5.467-1.424 6.465-3.427l.011-.006 5.958-12.741 7.596 12.864c.045.082.094.161.141.241l.103.17.009.005c1.149 1.718 3.473 2.895 6.159 2.895h2.084a.653.653 0 0 0 .654-.652l-11.167-18.913c-.615-1.13-.974-2.507-.974-3.994zM46.104-241.701a.652.652 0 0 0-.651.653V-234.467H26.812v-1.908c0-2.942-3.103-5.326-6.928-5.326a.655.655 0 0 0-.654.653v22.978c0 .361.295.652.654.652H49.568c1.91 0 3.463-1.192 3.464-2.661v-16.296c0-2.942-3.102-5.326-6.928-5.326zm-.651 18.305H26.812v-5.094h18.642v5.094zM100.206-211.886a.653.653 0 0 0-.654.653v6.337h-18.64v-1.664c-.001-2.943-3.104-5.326-6.929-5.326a.65.65 0 0 0-.651.653v22.082c0 .36.29.652.651.652h29.684c1.912 0 3.463-1.19 3.465-2.662v-15.399c0-2.943-3.104-5.326-6.926-5.326zm-.654 17.41h-18.64v-4.443h18.64v4.443z"/><path d="M100.051-241.701a.651.651 0 0 0-.653.651v9.953h-2.767c-3.823 0-6.926 2.383-6.927 5.324 0 .36.292.653.652.653h9.041v10.502c0 .36.291.652.653.652h3.464c1.91 0 3.463-1.193 3.465-2.663v-19.749c-.005-2.939-3.103-5.323-6.928-5.323zM151.612-241.701a.653.653 0 0 0-.651.651v51.9c0 .359.294.652.651.652h3.467c1.91 0 3.461-1.192 3.461-2.662v-45.218c0-2.939-3.101-5.323-6.928-5.323zM60.39-214.074H18.976h-.004c-3.823 0-6.926 2.385-6.926 5.325 0 .361.291.653.652.653H23.589v18.946c0 .359.291.652.653.652l3.464-.001c1.911 0 3.463-1.19 3.465-2.662v-16.936h10.747v18.946c0 .359.292.652.653.652l3.463-.001c1.912 0 3.463-1.19 3.464-2.662v-16.936h4.618c3.824 0 6.926-2.383 6.928-5.324a.653.653 0 0 0-.654-.652z"/></g><g fill="#232120"><path d="M98.394-153.923H78.892c-3.004 0-5.441 1.873-5.443 4.185 0 .284.23.513.513.513H92.84v11.016c0 .283.23.513.514.513h4.931a.513.513 0 0 0 .513-.513V-153.408c-.002-.285-.182-.515-.404-.515zM104.468-170.334h-5.873v-4.105c0-2.312-2.438-4.184-5.443-4.184a.513.513 0 0 0-.514.513v22.167c0 .283.229.513.514.513h4.931a.512.512 0 0 0 .513-.513v-9.693h5.873c.221 0 .402-.229.402-.513v-3.672c-.001-.283-.183-.513-.403-.513zM87.614-157.784a.512.512 0 0 0 .512-.512v-16.144c0-2.312-2.438-4.184-5.443-4.184a.512.512 0 0 0-.512.513v6.238h-8.596v-2.567c-.002-2.312-2.439-4.184-5.444-4.184a.513.513 0 0 0-.514.513v19.815c0 .283.229.512.514.512h19.483zm-5.443-9.391v4.693h-8.596v-4.693h8.596zM134.692-178.624a.514.514 0 0 0-.514.513v7.82h-2.173c-3.006 0-5.442 1.873-5.444 4.184 0 .284.23.514.514.514h7.104v9.59c0 .283.23.514.514.514h4.93c.283 0 .515-.23.515-.514v-18.437c-.003-2.311-2.441-4.184-5.446-4.184z"/><path d="M118.378-167.704l-4.701 8.333c-.887 1.387-2.736 2.343-4.881 2.343h-1.584c-.283 0-.633-.257-.513-.513l8.494-15.086h-7.323a.514.514 0 0 1-.514-.513v-3.671c0-.284.23-.513.514-.513h21.232c.283 0 .513.229.513.513-.001 2.312-2.438 4.184-5.444 4.184h-2.605l8.493 15.086c.12.256-.229.513-.513.513h-1.584c-2.145 0-3.995-.956-4.883-2.343l-.012-.006-4.689-8.327zM179.532-153.923h-19.501c-3.006 0-5.444 1.873-5.444 4.185 0 .284.229.513.513.513h18.878v11.016c0 .283.23.513.514.513h4.931a.513.513 0 0 0 .513-.513V-153.408c-.001-.285-.182-.515-.404-.515zM174.491-178.624a.514.514 0 0 0-.514.513v7.82h-4.787c-3.005 0-5.443 1.873-5.445 4.184 0 .284.23.514.514.514h9.719v9.59c0 .283.23.514.514.514h4.931c.282 0 .513-.23.513-.514v-18.437c-.002-2.311-2.44-4.184-5.445-4.184zM129.823-155.083c-5.741-.054-10.436 4.147-10.484 9.385-.05 5.236 4.563 9.525 10.305 9.58 5.741.054 10.436-4.147 10.484-9.385.05-5.236-4.564-9.525-10.305-9.58zm-.082 14.31c-2.451 0-4.438-2.161-4.438-4.829 0-2.666 1.986-4.828 4.438-4.828s4.438 2.162 4.438 4.828c0 2.667-1.987 4.829-4.438 4.829z"/><path d="M169.338-161.108a.513.513 0 0 0-.513-.513H154.14v-11.215h7.836c3.007 0 5.443-1.873 5.446-4.185a.514.514 0 0 0-.515-.513h-18.21a.513.513 0 0 0-.514.513v19.584c0 .283.229.514.514.514h15.197c3.006 0 5.443-1.874 5.444-4.185z"/></g><g stroke="#000" stroke-width=".1" stroke-miterlimit="10"><path d="M190.976-159.967l-.209.532h-.045a.55.55 0 0 0 .012-.128c0-.046-.016-.075-.049-.088a.455.455 0 0 0-.156-.02h-1.147v3.763c0 .155.013.261.037.318.025.057.058.093.102.107a.692.692 0 0 0 .208.022v.045h-1.191v-.045c.148-.01.242-.039.28-.086s.057-.147.057-.298v-3.826h-1.101a.707.707 0 0 0-.217.02c-.033.013-.051.045-.051.097 0 .026.008.065.024.119h-.045l-.209-.532h.045c.035.072.071.115.105.13.035.015.11.022.226.022h2.918a.985.985 0 0 0 .25-.022c.051-.015.088-.059.111-.13h.045zM194.805-157.61h-2.416v1.691c0 .159.007.26.021.304a.243.243 0 0 0 .084.11c.042.03.113.044.215.044v.045h-1.139v-.045c.208.014.312-.086.312-.301v-3.537c0-.201-.017-.328-.05-.382s-.121-.084-.262-.09v-.045h1.139v.045c-.126.008-.21.032-.254.072-.045.04-.065.122-.065.245v1.72h2.416v-1.574c0-.179-.016-.301-.048-.366-.029-.065-.117-.097-.257-.097v-.045h1.122v.045a.489.489 0 0 0-.197.031c-.044.021-.073.053-.089.097s-.024.155-.024.334v3.375c0 .173.009.281.024.324a.219.219 0 0 0 .083.106c.039.028.107.042.203.042v.045H194.5v-.045c.121 0 .202-.025.243-.074.041-.05.062-.184.062-.403v-1.671zM196.471-159.764v-.051h2.766v.606h-.046c-.059-.225-.109-.357-.15-.397-.041-.04-.141-.06-.3-.06h-1.451v1.974h1.347c.133 0 .217-.012.254-.037a.133.133 0 0 0 .057-.109h.045v.415h-.045c-.01-.058-.033-.097-.07-.117s-.104-.03-.205-.03h-1.382v1.359c0 .205.019.353.057.443a.269.269 0 0 0 .18.17c.083.023.208.034.375.034h.774c.247 0 .404-.008.474-.025a.345.345 0 0 0 .173-.101c.049-.05.086-.161.111-.331h.045v.604h-3.007v-.045c.102-.006.179-.025.231-.058s.079-.118.079-.255v-3.551a.985.985 0 0 0-.042-.34c-.031-.064-.119-.098-.27-.098zM204.728-159.88c.617 0 1.122.188 1.515.563.392.375.587.844.587 1.405 0 .723-.226 1.331-.68 1.825s-1.057.741-1.808.741c-.608 0-1.107-.199-1.496-.598a1.982 1.982 0 0 1-.583-1.434c0-.376.094-.762.281-1.159.188-.396.469-.719.846-.969.376-.249.822-.374 1.338-.374zm-.018 4.301c.303 0 .601-.082.895-.244a1.81 1.81 0 0 0 .697-.67c.169-.285.254-.578.254-.878a2.08 2.08 0 0 0-.343-1.162 2.43 2.43 0 0 0-.888-.818c-.363-.197-.699-.295-1.007-.295-.436 0-.833.164-1.188.493a1.602 1.602 0 0 0-.532 1.225c0 .623.217 1.171.65 1.643.436.47.922.706 1.462.706zM207.64-159.77v-.045h1.248c.316 0 .546.007.686.021.143.014.287.061.436.139s.261.185.336.32a.99.99 0 0 1 .113.495c0 .223-.066.436-.201.638s-.324.373-.568.513l.311.477c.067.12.246.381.539.785.291.404.517.65.676.738a.944.944 0 0 0 .463.133c.146 0 .316-.057.508-.17l.018.06c-.238.195-.549.293-.931.293-.254 0-.473-.076-.656-.226-.183-.151-.501-.564-.955-1.241-.004-.004-.007-.008-.007-.012l-.441-.681-.393.012h-.355v1.682c0 .135.018.232.053.291.036.059.121.088.258.088v.045h-1.135v-.045c.141-.006.229-.036.264-.089.035-.054.053-.163.053-.328v-3.495a.782.782 0 0 0-.045-.282c-.034-.075-.125-.114-.275-.116zm.824.072v2.063h.461c.361 0 .633-.085.808-.257.175-.171.264-.396.264-.675 0-.271-.087-.527-.259-.769-.173-.242-.477-.363-.912-.363h-.362zM213.993-159.814v.045a.448.448 0 0 0-.191.027c-.071.024-.113.059-.127.104a1.687 1.687 0 0 0-.019.325v3.375c0 .183.008.295.022.336a.213.213 0 0 0 .087.102c.043.027.119.04.228.04v.045h-1.173v-.045c.147 0 .239-.028.274-.085.036-.057.054-.186.054-.386v-3.343c0-.209-.02-.346-.06-.411-.039-.064-.129-.093-.269-.085v-.045h1.174zM219.112-155.46v.045h-1.773c-.341 0-.639-.037-.895-.11s-.518-.214-.783-.42-.48-.462-.645-.769-.246-.62-.246-.94c0-.351.103-.7.309-1.048.207-.349.5-.632.879-.85a2.56 2.56 0 0 1 1.294-.327c.433 0 .89.096 1.37.287l.184.508h-.044c-.153-.195-.363-.357-.629-.485s-.562-.193-.888-.193c-.567 0-1.031.214-1.394.641-.362.427-.544.958-.544 1.59 0 .263.03.498.09.704s.172.409.336.609c.164.2.34.347.529.442.188.095.398.16.631.197.232.037.418.053.556.049l.236-.006c.267-.01.434-.035.5-.075.066-.04.101-.141.101-.305v-.666c0-.129-.027-.216-.081-.261-.054-.044-.132-.064-.231-.058v-.045h1.139v.045c-.127 0-.212.025-.256.075-.042.049-.063.145-.063.286v.691c0 .139.019.239.056.299s.104.091.201.091h.061zM220.964-159.814v.045a.449.449 0 0 0-.192.027c-.071.024-.112.059-.126.104-.013.046-.02.154-.02.325v3.375c0 .183.008.295.022.336.016.041.044.075.087.102s.119.04.229.04v.045h-1.174v-.045c.146 0 .24-.028.274-.085.036-.057.054-.186.054-.386v-3.343c0-.209-.02-.346-.06-.411-.039-.064-.129-.093-.269-.085v-.045h1.175zM225.384-159.814h.852v.045c-.131.004-.22.031-.27.082s-.074.158-.074.321v4.005l-3.51-3.736v3.253c0 .104.008.18.023.229.017.05.04.084.068.102a.796.796 0 0 0 .226.054v.045h-.847v-.045c.152 0 .246-.027.283-.081s.055-.182.055-.385v-2.976c0-.261-.035-.474-.108-.639-.072-.165-.24-.242-.503-.23v-.045h.826l3.297 3.511v-3.105c0-.167-.029-.269-.088-.306a.435.435 0 0 0-.23-.055v-.044zM229.22-157.44h-1.291l-.666 1.661a.955.955 0 0 0-.069.221c0 .066.049.099.146.099v.045h-.652v-.045a.37.37 0 0 0 .221-.064c.06-.043.125-.154.196-.333l1.595-4.022h.079l1.568 3.885c0 .02.04.114.121.283.079.168.203.252.367.252v.045h-1.026v-.045c.093 0 .14-.037.14-.11a.696.696 0 0 0-.09-.278c-.004-.02-.006-.03-.008-.03l-.631-1.564zm-1.249-.123h1.189l-.594-1.499-.595 1.499zM231.306-155.415v-.045c.138 0 .227-.026.268-.078s.062-.14.062-.266v-3.599a.592.592 0 0 0-.048-.276c-.032-.057-.129-.087-.287-.091v-.045h1.18v.045c-.109 0-.186.014-.229.042s-.073.061-.087.099a.95.95 0 0 0-.021.257v3.088c0 .265.063.452.19.56.128.108.345.163.652.163h.538c.258 0 .447-.063.568-.191.12-.127.187-.367.201-.72h.045v1.057h-3.032zM239.407-159.757l.21.549-.036.006c0-.002-.055-.061-.166-.176-.11-.115-.236-.205-.379-.267s-.303-.094-.482-.094c-.301 0-.539.086-.715.258a.834.834 0 0 0-.266.623c0 .161.042.302.125.422.083.121.255.233.518.337.452.152.76.267.927.344.167.076.327.206.481.389s.232.417.232.704c0 .119-.015.233-.042.342a1.295 1.295 0 0 1-.358.587 1.041 1.041 0 0 1-.264.188 1.42 1.42 0 0 1-.425.097c-.192.022-.32.033-.382.033h-1.174v-1.278h.044c.005.424.104.72.301.887.193.167.497.251.909.251.375 0 .659-.089.854-.266a.841.841 0 0 0 .291-.639.707.707 0 0 0-.102-.387.963.963 0 0 0-.284-.281c-.121-.081-.352-.179-.689-.295-.336-.118-.572-.222-.709-.31s-.251-.222-.343-.4a1.181 1.181 0 0 1-.136-.544c0-.34.115-.626.35-.856.233-.231.541-.346.921-.346.147 0 .307.017.479.051a2.622 2.622 0 0 1 .31.071zM241.74-159.814v.045a.45.45 0 0 0-.192.027c-.072.024-.112.059-.126.104-.013.046-.02.154-.02.325v3.375c0 .183.007.295.022.336a.21.21 0 0 0 .086.102c.044.027.12.04.229.04v.045h-1.174v-.045c.147 0 .239-.028.274-.085.036-.057.054-.186.054-.386v-3.343c0-.209-.021-.346-.06-.411-.039-.064-.129-.093-.269-.085v-.045h1.176zM246.16-159.814h.851v.045c-.129.004-.219.031-.269.082s-.074.158-.074.321v4.005l-3.511-3.736v3.253c0 .104.01.18.025.229.016.05.039.084.068.102.03.018.104.036.225.054v.045h-.846v-.045c.151 0 .244-.027.282-.081.037-.054.056-.182.056-.385v-2.976c0-.261-.036-.474-.109-.639-.072-.165-.24-.242-.503-.23v-.045h.827l3.297 3.511v-3.105c0-.167-.029-.269-.09-.306a.432.432 0 0 0-.229-.055v-.044zM251.611-159.593l.164.466h-.044c-.426-.424-.928-.636-1.505-.636-.599 0-1.083.178-1.452.535s-.554.788-.554 1.293c0 .313.083.672.247 1.078s.422.74.777 1.002c.354.262.785.393 1.287.393.33 0 .655-.053.973-.16.316-.106.554-.25.709-.429l.039.012-.308.472a16.82 16.82 0 0 1-.97.191c-.147.02-.347.03-.595.03-.923 0-1.582-.214-1.979-.641a2.179 2.179 0 0 1-.596-1.534c0-.402.102-.789.307-1.16.204-.372.498-.664.881-.878a2.669 2.669 0 0 1 1.318-.321c.247 0 .461.022.641.067.181.045.33.091.449.139l.197.075a.048.048 0 0 1 .014.006zM252.907-159.764v-.051h2.766v.606h-.045c-.06-.225-.11-.357-.152-.397-.04-.04-.14-.06-.299-.06h-1.451v1.974h1.347c.133 0 .218-.012.253-.037a.13.13 0 0 0 .058-.109h.044v.415h-.044c-.01-.058-.033-.097-.071-.117a.467.467 0 0 0-.203-.03h-1.383v1.359c0 .205.019.353.057.443a.269.269 0 0 0 .18.17c.083.023.208.034.375.034h.775c.246 0 .404-.008.473-.025a.353.353 0 0 0 .174-.101c.049-.05.084-.161.11-.331h.045v.604h-3.007v-.045a.492.492 0 0 0 .231-.058c.052-.033.079-.118.079-.255v-3.551a.98.98 0 0 0-.043-.34c-.029-.064-.117-.098-.269-.098zM210.384-149.577l1.371-.852h.083v7.077c0 .276.039.45.116.521.079.071.26.106.544.106v.078h-2.146v-.078c.152 0 .278-.011.379-.034.101-.022.174-.085.221-.189s.07-.264.07-.482v-5.708c0-.149-.013-.268-.039-.358-.025-.09-.094-.135-.205-.135-.094 0-.226.043-.395.13v-.076zM214.783-142.542l-.052-.146c.852-.205 1.496-.476 1.933-.816.437-.339.804-.781 1.102-1.325s.468-1.133.509-1.767l-.021-.021a2.158 2.158 0 0 1-.901.927 2.511 2.511 0 0 1-1.197.309 2.219 2.219 0 0 1-1.668-.711c-.454-.474-.68-1.064-.68-1.77s.244-1.311.734-1.814 1.088-.755 1.795-.755c.789 0 1.463.305 2.019.914s.833 1.371.833 2.285c0 1.142-.377 2.153-1.131 3.032-.756.88-1.848 1.432-3.275 1.658zm1.907-3.284c.414 0 .776-.153 1.082-.459.307-.306.461-.657.461-1.051 0-.629-.227-1.255-.676-1.876-.451-.621-.974-.931-1.569-.931-.433 0-.784.156-1.055.467-.27.312-.405.673-.405 1.085 0 .643.206 1.265.619 1.866.413.599.926.899 1.543.899zM222.862-146.66a13.896 13.896 0 0 1-.984-.642 1.86 1.86 0 0 1-.448-.537 1.484 1.484 0 0 1-.209-.774c0-.471.2-.891.6-1.262.4-.37.957-.555 1.671-.555.654 0 1.16.142 1.516.425.358.284.535.653.535 1.105 0 .775-.537 1.412-1.615 1.91.711.427 1.217.809 1.519 1.146.3.338.45.747.45 1.228 0 .626-.256 1.128-.771 1.506-.514.377-1.143.566-1.888.566-.728 0-1.321-.174-1.782-.522s-.691-.801-.691-1.359c0-.471.166-.876.496-1.214.329-.337.863-.677 1.601-1.021zm.326.179l-.088-.062c-.381.173-.73.41-1.051.709-.321.3-.48.675-.48 1.125 0 .481.19.924.571 1.327.38.404.834.605 1.363.605.412 0 .798-.14 1.158-.42.359-.28.539-.645.539-1.094a1.62 1.62 0 0 0-.354-1.003c-.235-.309-.788-.705-1.658-1.187zm.509-.635c.71-.404 1.065-.924 1.065-1.561 0-.422-.151-.773-.455-1.055a1.58 1.58 0 0 0-1.115-.422c-.373 0-.707.098-1.002.293-.293.195-.439.48-.439.854 0 .232.057.433.168.604.112.171.375.395.787.669.411.276.742.482.991.618zM229.693-146.66a13.796 13.796 0 0 1-.983-.642 1.847 1.847 0 0 1-.449-.537 1.484 1.484 0 0 1-.209-.774c0-.471.2-.891.6-1.262.4-.37.957-.555 1.67-.555.654 0 1.161.142 1.518.425.357.284.535.653.535 1.105 0 .775-.538 1.412-1.615 1.91.71.427 1.215.809 1.518 1.146.301.338.451.747.451 1.228 0 .626-.257 1.128-.771 1.506-.516.377-1.145.566-1.889.566-.729 0-1.322-.174-1.782-.522-.462-.348-.69-.801-.69-1.359 0-.471.164-.876.496-1.214.328-.337.861-.677 1.6-1.021zm.326.179l-.088-.062c-.381.173-.73.41-1.051.709s-.48.675-.48 1.125c0 .481.19.924.571 1.327.38.404.835.605 1.364.605.41 0 .797-.14 1.157-.42.359-.28.539-.645.539-1.094a1.62 1.62 0 0 0-.354-1.003c-.235-.309-.788-.705-1.658-1.187zm.509-.635c.711-.404 1.066-.924 1.066-1.561 0-.422-.152-.773-.456-1.055a1.582 1.582 0 0 0-1.115-.422c-.373 0-.707.098-1.001.293-.295.195-.44.48-.44.854 0 .232.056.433.168.604s.374.395.787.669c.411.276.743.482.991.618z"/></g><path d="M34.737-126.878v-.054h1.246c.365 0 .623.017.775.051a1.151 1.151 0 0 1 .791.605c.098.18.146.384.146.613 0 .451-.2.807-.6 1.067.346.065.605.224.781.476s.264.558.264.917c0 .335-.075.64-.226.915-.151.275-.323.458-.518.548s-.466.136-.815.136H34.73v-.054c.147 0 .241-.033.283-.1.041-.066.062-.235.062-.508v-4.012c0-.193-.006-.324-.016-.394-.009-.07-.041-.122-.095-.155s-.129-.051-.227-.051zm.892.058v2.34h.583c.395 0 .656-.125.785-.376.129-.25.193-.5.193-.749 0-.268-.049-.492-.148-.671a.967.967 0 0 0-.438-.407c-.193-.092-.476-.137-.85-.137h-.125zm.374 2.452h-.374v1.689c0 .234.009.386.024.456.016.07.053.144.111.221a.59.59 0 0 0 .277.187c.129.047.313.07.553.07.375 0 .639-.096.792-.288.153-.191.23-.476.23-.852 0-.391-.067-.709-.204-.955s-.291-.396-.465-.449c-.171-.052-.486-.079-.944-.079zM41.944-126.871v-.062h3.014v.734h-.049c-.064-.272-.119-.433-.164-.481-.044-.048-.152-.072-.326-.072h-1.582v2.391h1.468c.146 0 .237-.015.276-.045a.165.165 0 0 0 .063-.132h.049v.503h-.049c-.012-.07-.037-.117-.077-.141s-.114-.036-.224-.036h-1.506v1.646c0 .249.02.428.062.538.041.109.106.178.196.206s.227.042.408.042h.846c.269 0 .439-.01.514-.031a.37.37 0 0 0 .191-.122c.051-.061.092-.194.119-.4h.051v.73h-3.279v-.054a.504.504 0 0 0 .252-.07c.059-.04.087-.143.087-.309v-4.302c0-.195-.015-.333-.046-.412s-.129-.121-.294-.121zM51.425-124.057h-1.406l-.727 2.011a1.27 1.27 0 0 0-.075.268c0 .08.054.12.16.12v.054h-.713v-.054a.377.377 0 0 0 .241-.078c.064-.052.135-.187.214-.404l1.737-4.872h.087l1.71 4.706c0 .024.044.138.131.342.088.204.223.306.402.306v.054h-1.121v-.054c.103 0 .153-.044.153-.134a.92.92 0 0 0-.075-.29.129.129 0 0 1-.022-.047c-.005-.024-.007-.036-.01-.036l-.686-1.892zm-1.362-.148h1.298l-.647-1.816-.651 1.816zM60.94-121.604h-.908v-.821c-.463.572-1.013.857-1.652.857-.475 0-.852-.148-1.13-.445-.278-.297-.418-.707-.418-1.23v-3.19c0-.193-.021-.315-.062-.367-.041-.052-.139-.078-.29-.078v-.054h1.272v.054c-.135 0-.229.023-.285.07-.055.047-.082.159-.082.335v2.926c0 .612.128 1.049.387 1.311.258.262.551.393.881.393.518 0 .978-.259 1.379-.778v-3.606c0-.315-.025-.503-.075-.562s-.128-.089-.233-.089h-.047v-.054h1.264v.054c-.156.01-.254.039-.295.087-.041.048-.061.14-.061.274v4.338c0 .171.008.283.023.336a.245.245 0 0 0 .093.132c.046.035.126.052.239.052v.055zM70.046-126.932h1.289v.054c-.165 0-.268.038-.308.112s-.061.195-.061.361v4.533c0 .432-.013.753-.038.966a1.511 1.511 0 0 1-.176.559 1.104 1.104 0 0 1-.361.385.945.945 0 0 1-.525.145c-.191 0-.386-.038-.586-.112l.008-.062a.808.808 0 0 0 .26.033.723.723 0 0 0 .645-.344c.146-.229.221-.621.221-1.176v-4.905c0-.219-.023-.357-.074-.413-.049-.055-.146-.083-.293-.083v-.053zM75.146-126.871v-.062h3.016v.734h-.049c-.064-.272-.119-.433-.164-.481-.045-.048-.154-.072-.326-.072h-1.584v2.391h1.469c.146 0 .238-.015.277-.045.039-.03.059-.074.063-.132h.049v.503h-.049c-.012-.07-.037-.117-.077-.141s-.114-.036-.224-.036h-1.508v1.646c0 .249.021.428.063.538.041.109.107.178.197.206s.226.042.408.042h.845c.269 0 .44-.01.515-.031a.37.37 0 0 0 .191-.122c.051-.061.092-.194.119-.4h.049v.73h-3.279v-.054a.516.516 0 0 0 .254-.07c.058-.04.086-.143.086-.309v-4.302c0-.195-.015-.333-.045-.412-.033-.081-.13-.121-.296-.121zM84.741-127.012c.673 0 1.223.227 1.65.682s.642 1.022.642 1.702c0 .875-.247 1.612-.743 2.21-.494.598-1.15.897-1.969.897-.664 0-1.209-.241-1.631-.723-.424-.482-.635-1.061-.635-1.736 0-.456.102-.924.306-1.403a2.78 2.78 0 0 1 .921-1.174c.41-.303.897-.455 1.459-.455zm-.019 5.209c.33 0 .655-.099.977-.295.321-.197.574-.467.759-.812.185-.345.276-.7.276-1.063 0-.516-.124-.985-.373-1.407-.248-.422-.57-.752-.967-.991s-.762-.358-1.1-.358c-.475 0-.905.199-1.293.597-.387.398-.582.892-.582 1.483 0 .755.238 1.418.711 1.99.473.57 1.004.856 1.592.856zM90.862-126.878v-.054h1.246c.365 0 .623.017.775.051a1.151 1.151 0 0 1 .791.605c.098.18.146.384.146.613 0 .451-.199.807-.6 1.067.346.065.605.224.781.476s.264.558.264.917c0 .335-.074.64-.227.915-.15.275-.323.458-.517.548-.194.09-.466.136-.815.136h-1.853v-.054c.147 0 .241-.033.283-.1.04-.066.062-.235.062-.508v-4.012c0-.193-.005-.324-.015-.394-.011-.07-.042-.122-.096-.155s-.127-.051-.225-.051zm.892.058v2.34h.583c.395 0 .656-.125.785-.376.13-.25.194-.5.194-.749 0-.268-.05-.492-.149-.671a.972.972 0 0 0-.438-.407c-.193-.092-.476-.137-.849-.137h-.126zm.374 2.452h-.374v1.689c0 .234.009.386.024.456a.586.586 0 0 0 .388.408c.129.047.313.07.554.07.374 0 .638-.096.79-.288.155-.191.232-.476.232-.852 0-.391-.068-.709-.205-.955s-.291-.396-.465-.449c-.171-.052-.486-.079-.944-.079zM100.367-126.863l.228.666-.037.007c0-.002-.062-.074-.182-.214a1.304 1.304 0 0 0-.414-.324 1.174 1.174 0 0 0-.525-.114c-.328 0-.588.104-.779.313-.192.208-.288.46-.288.754 0 .196.045.366.134.512.092.146.279.282.566.408.492.184.828.323 1.01.416s.356.25.524.472c.169.222.253.506.253.853 0 .145-.016.282-.046.414s-.079.258-.146.379-.147.232-.243.333c-.094.1-.19.176-.287.228-.098.052-.252.091-.463.118-.211.026-.35.04-.416.04h-1.279v-1.548h.049c.004.514.112.872.325 1.075.212.202.544.304.993.304.408 0 .717-.107.93-.322.211-.215.316-.473.316-.774 0-.183-.037-.339-.11-.468s-.177-.243-.31-.34c-.132-.098-.383-.217-.752-.357-.365-.143-.623-.268-.773-.375a1.219 1.219 0 0 1-.372-.484 1.54 1.54 0 0 1-.149-.66c0-.412.127-.758.381-1.037.256-.28.591-.419 1.006-.419.16 0 .334.021.521.062s.291.067.313.08c.006-.001.014.002.022.002zM105.843-126.932v.054a.437.437 0 0 0-.209.033c-.078.029-.123.071-.138.126a2.162 2.162 0 0 0-.021.394v4.088c0 .222.008.357.024.407s.048.09.095.123c.045.033.129.049.248.049v.054h-1.279v-.054c.16 0 .26-.034.299-.103.04-.069.06-.225.06-.468v-4.048c0-.253-.021-.419-.065-.497-.043-.078-.141-.113-.293-.103v-.054h1.279zM117.944-124.119c.229.205.41.557.41.917 0 .335-.075.64-.227.915-.15.275-.323.458-.518.548s-.467.136-.816.136h-1.852v-.054c.148 0 .241-.033.283-.1.041-.066.063-.235.063-.508v-4.012c0-.193-.006-.324-.016-.394s-.041-.122-.096-.155-.131-.051-.228-.051v-.054h1.229v.054a.427.427 0 0 0-.227.051c-.055.034-.086.085-.096.155s-.016.201-.016.394v1.627h.582c.004 0 .947.015 1.525.531zm-1.728-.249h-.375v1.689c0 .234.009.386.025.456a.62.62 0 0 0 .109.221c.059.077.15.139.279.187.128.047.313.07.553.07.374 0 .638-.096.791-.288.154-.191.346-.57.346-.946 0-.391-.093-.608-.318-.861-.307-.342-.953-.528-1.41-.528zM124.956-124.268h.721v.054c-.092.007-.166.031-.225.072s-.127.125-.203.253l-1.172 1.975-1.484 2.439c-.133.266-.241.327-.195.388.047.062.145.092.299.092v.054h-1.282v-.054c.245.017.624-.028.843-.383l1.375-2.227-1.283-2.277c-.123-.229-.262-.34-.413-.333v-.054h1.133v.054c-.106 0-.159.044-.159.134 0 .045.027.117.082.213l.967 1.773 1.057-1.787a.32.32 0 0 0 .064-.106.306.306 0 0 0 .037-.107c0-.079-.047-.119-.141-.119h-.02v-.054zM134.593-126.878v-.054h1.367c.486 0 .84.061 1.06.181s.381.271.481.451c.102.18.152.417.152.712 0 .452-.141.791-.42 1.018-.281.227-.66.336-1.141.326v-.054c.305 0 .551-.104.741-.311s.285-.48.285-.817a1.67 1.67 0 0 0-.139-.7 1.046 1.046 0 0 0-.39-.465c-.166-.106-.422-.159-.764-.159h-.342v4.558c0 .258.025.412.078.461.051.049.15.074.295.074v.054h-1.266v-.054c.226 0 .338-.115.338-.343v-4.41c0-.188-.021-.313-.064-.374s-.133-.094-.271-.094zM143.445-124.057h-1.407l-.727 2.011a1.308 1.308 0 0 0-.074.268c0 .08.053.12.16.12v.054h-.713v-.054a.372.372 0 0 0 .24-.078c.064-.052.137-.187.215-.404l1.738-4.872h.086l1.709 4.706c0 .024.045.138.132.342.087.204.222.306.401.306v.054h-1.12v-.054c.103 0 .153-.044.153-.134a.949.949 0 0 0-.075-.29.103.103 0 0 1-.022-.047c-.005-.024-.008-.036-.01-.036l-.686-1.892zm-1.361-.148h1.298l-.648-1.816-.65 1.816zM148.832-126.878v-.054h1.36c.346 0 .596.008.75.025.152.017.312.073.473.168a.93.93 0 0 1 .367.387c.082.163.123.362.123.599 0 .27-.073.528-.22.773a1.876 1.876 0 0 1-.62.621l.338.578c.074.145.27.461.588.951s.564.787.738.895.342.161.504.161c.16 0 .346-.069.553-.206l.021.072c-.262.236-.6.354-1.016.354-.277 0-.516-.091-.716-.274-.199-.183-.546-.684-1.042-1.503-.004-.005-.006-.009-.006-.014l-.482-.824-.427.014h-.388v2.037c0 .164.019.281.057.353.039.071.133.106.281.106v.054h-1.237v-.054c.153-.007.251-.043.288-.108s.057-.198.057-.398v-4.232c0-.138-.016-.251-.049-.342s-.13-.136-.295-.139zm.899.087v2.5h.502c.396 0 .689-.104.881-.311s.287-.48.287-.818c0-.328-.094-.638-.283-.931-.188-.293-.519-.44-.992-.44h-.395zM157.378-126.932h1.374v.054c-.149-.007-.255.018-.315.074s-.092.204-.092.443v2.044l2.849-2.376c.057-.043.085-.083.085-.12 0-.043-.064-.065-.192-.065v-.054h1.036v.054c-.262.007-.516.113-.763.318l-2.482 2.057 2.476 2.089a.043.043 0 0 0 .01.007.018.018 0 0 1 .01.011c.005.002.01.004.014.004.324.27.576.459.756.569.18.11.348.165.504.165v.054h-1.631v-.054c.145 0 .218-.018.218-.054 0-.031-.06-.098-.179-.199l-2.709-2.286v1.976c0 .231.016.373.045.426.029.053.068.091.117.114s.128.031.238.023v.054h-1.367v-.054c.182.01.297-.021.344-.092s.07-.221.07-.45v-4.131c0-.236-.023-.389-.07-.459s-.162-.099-.344-.087v-.055zM171.507-126.932h1.289v.054c-.165 0-.268.038-.308.112s-.06.195-.06.361v4.533c0 .432-.014.753-.039.966a1.511 1.511 0 0 1-.176.559 1.104 1.104 0 0 1-.361.385.945.945 0 0 1-.525.145c-.19 0-.387-.038-.586-.112l.008-.062a.808.808 0 0 0 .26.033c.281 0 .497-.115.645-.344s.221-.621.221-1.176v-4.905c0-.219-.023-.357-.073-.413-.05-.055-.147-.083-.294-.083v-.053zM176.608-126.871v-.062h3.014v.734h-.049c-.064-.272-.119-.433-.164-.481-.045-.048-.154-.072-.326-.072H177.5v2.391h1.468c.146 0 .238-.015.277-.045a.168.168 0 0 0 .063-.132h.049v.503h-.049c-.012-.07-.037-.117-.077-.141s-.114-.036-.224-.036H177.5v1.646c0 .249.021.428.062.538.041.109.107.178.197.206s.226.042.408.042h.844c.27 0 .441-.01.516-.031a.37.37 0 0 0 .191-.122c.051-.061.092-.194.119-.4h.049v.73h-3.277v-.054a.51.51 0 0 0 .252-.07c.058-.04.086-.143.086-.309v-4.302c0-.195-.015-.333-.045-.412-.032-.081-.13-.121-.294-.121zM186.202-127.012c.673 0 1.223.227 1.65.682s.641 1.022.641 1.702c0 .875-.246 1.612-.742 2.21-.494.598-1.15.897-1.969.897-.664 0-1.209-.241-1.631-.723-.424-.482-.635-1.061-.635-1.736 0-.456.102-.924.305-1.403a2.79 2.79 0 0 1 .922-1.174c.41-.303.897-.455 1.459-.455zm-.019 5.209c.33 0 .655-.099.977-.295.321-.197.574-.467.759-.812.185-.345.276-.7.276-1.063 0-.516-.125-.985-.373-1.407s-.57-.752-.967-.991-.762-.358-1.1-.358c-.475 0-.905.199-1.293.597-.387.398-.581.892-.581 1.483 0 .755.237 1.418.71 1.99.472.57 1.004.856 1.592.856zM196.241-126.932h.929v.054c-.142.005-.239.038-.293.1-.056.062-.081.191-.081.389v4.851l-3.826-4.525v3.94c0 .125.01.218.026.278.017.06.042.101.075.123a.802.802 0 0 0 .244.065v.054h-.922v-.054c.165 0 .268-.033.309-.098.039-.065.06-.22.06-.466v-3.604c0-.315-.04-.573-.118-.773-.08-.2-.263-.293-.549-.278v-.054h.901l3.595 4.252v-3.761c0-.203-.033-.326-.098-.371a.446.446 0 0 0-.252-.067v-.055zM205.683-121.658v.054h-1.934c-.371 0-.696-.044-.975-.134-.279-.089-.564-.259-.854-.508s-.523-.56-.703-.932a2.582 2.582 0 0 1-.269-1.139c0-.424.112-.848.337-1.27s.545-.765.959-1.029a2.568 2.568 0 0 1 1.41-.396c.471 0 .969.116 1.494.347l.199.615h-.047a1.945 1.945 0 0 0-.686-.587 2.001 2.001 0 0 0-.967-.233c-.619 0-1.125.259-1.52.776s-.593 1.159-.593 1.926c0 .318.032.602.099.852.064.25.187.496.365.738.18.242.371.42.576.535s.436.194.689.239.455.064.605.06l.256-.007c.291-.012.473-.042.545-.09.074-.048.11-.171.11-.369v-.807c0-.157-.029-.262-.088-.316s-.142-.078-.251-.07v-.054h1.24v.054c-.139 0-.231.03-.277.09-.047.06-.07.175-.07.346v.837c0 .168.02.29.061.363.039.074.113.11.219.11h.07zM214.655-126.878v-.054h2.201c.56 0 1.002.049 1.326.146s.607.251.848.461c.241.21.432.479.573.805s.212.691.212 1.094c0 .388-.073.77-.221 1.145a3.023 3.023 0 0 1-.597.97c-.251.271-.517.457-.796.557s-.711.15-1.295.15h-2.252v-.054h.059c.117 0 .193-.052.23-.157s.057-.294.057-.569v-3.879c0-.289-.023-.464-.067-.524s-.137-.091-.278-.091zm1.635.058h-.736v4.134c0 .26.039.454.119.581.079.126.214.218.404.275.191.057.449.085.772.085.898 0 1.528-.256 1.894-.769a2.841 2.841 0 0 0 .545-1.677c0-.711-.25-1.328-.748-1.848-.498-.521-1.248-.781-2.25-.781zM223.624-126.871v-.062h3.015v.734h-.049c-.065-.272-.12-.433-.164-.481-.045-.048-.153-.072-.327-.072h-1.582v2.391h1.468c.146 0 .237-.015.276-.045a.165.165 0 0 0 .063-.132h.049v.503h-.049c-.012-.07-.037-.117-.076-.141a.483.483 0 0 0-.224-.036h-1.507v1.646c0 .249.02.428.061.538.042.109.107.178.197.206s.227.042.408.042h.846c.268 0 .439-.01.514-.031a.37.37 0 0 0 .191-.122c.052-.061.092-.194.119-.4h.05v.73h-3.278v-.054a.504.504 0 0 0 .252-.07c.059-.04.086-.143.086-.309v-4.302c0-.195-.014-.333-.045-.412-.031-.081-.129-.121-.294-.121zM233.218-127.012c.674 0 1.223.227 1.65.682s.643 1.022.643 1.702c0 .875-.248 1.612-.743 2.21s-1.151.897-1.97.897c-.664 0-1.207-.241-1.631-.723-.423-.482-.635-1.061-.635-1.736 0-.456.102-.924.307-1.403.203-.48.511-.872.92-1.174.411-.303.897-.455 1.459-.455zm-.02 5.209c.33 0 .656-.099.977-.295.322-.197.574-.467.76-.812.184-.345.275-.7.275-1.063 0-.516-.123-.985-.372-1.407s-.571-.752-.968-.991-.762-.358-1.098-.358c-.477 0-.906.199-1.295.597-.387.398-.58.892-.58 1.483 0 .755.236 1.418.709 1.99.473.57 1.004.856 1.592.856zM243.453-126.665l.179.564h-.047c-.465-.514-1.012-.771-1.641-.771-.652 0-1.18.216-1.582.647s-.604.954-.604 1.566c0 .378.09.813.268 1.306.18.492.463.896.848 1.213.387.317.855.476 1.404.476.359 0 .713-.064 1.06-.193.347-.129.604-.302.772-.519l.043.015-.336.571c-.542.13-.895.208-1.056.231a4.618 4.618 0 0 1-.649.036c-1.006 0-1.725-.258-2.158-.776-.432-.517-.648-1.136-.648-1.857 0-.487.111-.956.334-1.405s.543-.804.962-1.063.897-.389 1.436-.389c.269 0 .501.027.698.082.197.054.359.11.49.168l.215.09.012.008zM247.731-126.932h1.373v.054c-.15-.007-.254.018-.315.074s-.091.204-.091.443v2.044l2.848-2.376c.057-.043.086-.083.086-.12 0-.043-.064-.065-.193-.065v-.054h1.035v.054c-.26.007-.514.113-.762.318l-2.482 2.057 2.477 2.089.01.007a.022.022 0 0 1 .01.011.033.033 0 0 0 .014.004c.324.27.576.459.756.569.18.11.348.165.504.165v.054h-1.631v-.054c.145 0 .217-.018.217-.054 0-.031-.059-.098-.178-.199l-2.709-2.286v1.976c0 .231.015.373.044.426a.257.257 0 0 0 .117.114c.048.023.128.031.239.023v.054h-1.367v-.054c.182.01.297-.021.344-.092.046-.071.068-.221.068-.45v-4.131c0-.236-.022-.389-.068-.459-.047-.07-.162-.099-.344-.087v-.055z"/><g fill="#595857"><path d="M54.755-159.761c-.382-.63-.842-1.112-1.386-1.447a5.114 5.114 0 0 0-1.7-.678c-.594-.119-1.6-.176-3.023-.176H45.525v-6.078c0-.677.018-1.103.056-1.348a.74.74 0 0 1 .376-.551c.209-.116.506-.176.887-.176v-.191h-5.598v.191c.382 0 .678.06.889.176a.74.74 0 0 1 .375.551c.039.245.057.703.057 1.38v14.084c0 .954-.08 1.549-.24 1.783-.16.231-.531.349-1.105.349v.188h7.842l-.359-.507c-.654-.028-1.176-.105-1.564-.235-.5-.165-.865-.381-1.089-.653-.223-.271-.367-.529-.431-.774-.063-.246-.094-.777-.094-1.597v-5.932h.66c1.786 0 3.016.094 3.689.276.67.191 1.276.714 1.808 1.577.534.864.802 1.981.802 3.352.002.745-.102 1.381-.299 1.917l.438.727.025.04.246.407.281.468c.46-.356.885-.832 1.268-1.462.591-.965.884-2.037.884-3.212v-.293c-.003-.807-.193-1.526-.574-2.156z"/><path d="M57.913-156.403v.19h.074c.365 0 .547.141.547.419 0 .067-.045.194-.141.374-.094.18-.176.308-.254.376l-3.701 5.639-3.393-5.594c-.209-.34-.314-.584-.314-.746 0-.311.203-.469.619-.469v-.19h-5.219v.19c.016-.002.034-.002.053-.002.57 0 1.091.393 1.555 1.172l5.002 8.226s-5.258 7.798-5.661 8.239c-.403.44-.781.662-1.133.662v.219h3.326v-.219c-.326 0-.49-.074-.49-.22 0-.128.133-.391.403-.798l10.669-16.135c.297-.449.559-.747.788-.89.227-.141.519-.229.874-.254v-.19h-3.604z"/></g><g><path fill="#E60C12" d="M277.06 42.299c-3.32-7.243-.246-13.409-.246-13.409v-.006c.73-1.803.758-3.859-.102-5.732-.857-1.871-2.432-3.193-4.281-3.817-5.029-1.587-7.227-3.509-10.525-10.704-2.84-6.189-7.311-4.664-11.596-5.73-2.922-4.866-12.504-2.988-21.389 1.086-8.889 4.076-16.563 10.11-14.779 15.502-1.99 3.941-6.064 6.334-3.225 12.524 3.297 7.196 3.324 10.113 1.242 14.96h.002c-.734 1.809-.76 3.865.098 5.737.859 1.872 2.436 3.194 4.281 3.817l.002.002s6.678 1.693 10 8.938c2.623 5.721 7.543 9.081 15.539 5.413 5.842-2.68 7.008-5.598 9.375-7.97-.568-.614-1.219-1.245-1.871-1.718-1.809-1.313-2.748-.993-5.352-2.765-1.609-1.094-3.172-2.303-4.838-3.309-1.502-.908-1.836-2.002-2.818-3.386-.922-1.299-2.002-2.355-3.111-3.481-.926-.939-1.666-2.023-2.643-2.924-1.57-1.451-3.838-3.195-3.809-3.426s.688-1.137 1.313-1.439c.627-.302.875-.099.875-.099s.691-.471 2.598.283a12.41 12.41 0 0 1 5.379 4.054s1.074.875 1.998 1.958c.395.462.311-.298.256-.466-.057-.167-.043-1.47-.824-2.982-.779-1.514-3.063-5.531-4.676-7.527-2.133-2.641-3.598-5.68-5.58-8.416-.74-1.016-2.232-3.403-1.916-4.303 0 0-.217-.256-.02-.648a1.823 1.823 0 0 1 1.215-.951c.631-.158.957.096 1.125.221 0 0 .744-.023 1.865 1.596 1.297 1.875 2.482 3.818 3.861 5.635 1.432 1.887 2.979 3.693 4.268 5.684 1.289 1.984 2.117 2.072 2.311 1.745.191-.33-1.066-2.511-1.885-3.563-2.988-3.844-5.02-8.312-7.537-12.453-.613-1.012-.822-2.011-.52-2.461 0 0-.117-.415.309-.935.424-.521 1.506-.917 1.922-.653 0 0 .73-.096 1.447 1.137.719 1.228 2.613 4.525 3.902 6.408 1.291 1.884 2.715 3.832 4.096 6.26 1.383 2.432 2.439 4.045 2.836 4.181s.973.165.83-.19c-.744-1.854-1.729-3.63-2.547-5.457-1.268-2.838-2.408-5.721-3.945-8.429-.756-1.329-1.391-2.587-.855-3.369 0 0-.041-.315.658-.774.697-.457 1.377-.424 1.689-.121 0 0 .559-.278 1.984 2.648 1.541 3.171 3.488 6.137 4.951 9.35 1.303 2.854 3.039 6.501 3.334 6.673.297.171.648-.05.563-.538-.697-3.913-2.639-7.542-3.922-11.248-.625-1.8-.352-3.049.109-3.438 0 0 .297-.679 1.018-.727.719-.05.809.298.809.298s.453.408.752.964c.264.495 1.553 3.319 2.102 5.001.754 2.311 1.785 4.238 2.5 6.562.592 1.919 1.461 3.782 2.4 5.582 1.332 2.558 3.359 8.797 4.031 11.528.674 2.734.285 4.791 1.26 6.715.511 1.009 1.48 2.708 2.289 4.099 1.521-.233 3.26-.709 5.385-1.684 7.995-3.673 8.658-9.591 6.033-15.313z"/><path d="M43.599 44.659c.648 0 .781.352.781.782h.203v-2.64h-.203c0 .432-.133.779-.781.779h-8.24V33.506h7.645c2.107 0 2.546 1.142 2.546 2.549h.372v-3.623h-15.08v.37c.93 0 1.686.29 1.686 1.688v19.727c0 1.396-.756 1.688-1.686 1.688v.368h16.287v-3.625h-.373c0 1.408-.436 2.548-2.545 2.548h-6.305c-1.408 0-2.547-.435-2.547-2.548v-7.99l8.24.001zM87.343 32.433l-1.691.001v.374c.934 0 1.691.288 1.691 1.688v16.563c-3.845 5.279-11.832 5.482-12.877-.624-.203-1.188-.287-2.562-.32-3.954V33.735c.238-.743.856-.926 1.584-.926v-.374h-1.584v-.001h-2.82v.001h-1.818v.374c.934 0 1.691.288 1.691 1.688h.134c.024 5.23.058 10.467.058 15.695 0 3.775 2.953 5.653 6.188 6.084h2.971a13.28 13.28 0 0 0 6.795-2.922v.934c0 1.4-.758 1.689-1.691 1.689v.299h6.224v-.299c-.935 0-1.692-.289-1.692-1.689v-.004-19.787c0-1.399.758-1.688 1.692-1.688v-.374h-1.692v-.001h-2.843zM49.673 55.315h-.002c-.324.693-.626.824-1.08.824v.135h3.033v-.134c-.456 0-.777-.164-.505-.824 1.243-3.196 2.485-6.393 3.73-9.59h7.187c1.179 2.855 2.359 5.707 3.537 8.561.559 1.355-.1 1.689-1.035 1.689v.299h6.224v-.299c-.931 0-1.552-.271-2.216-1.685l-9.039-21.858h-.931l-8.903 22.882zm5.781-10.666c-.064 0-.125.01-.188.011 1.021-2.628 2.046-5.255 3.066-7.886 1.086 2.623 2.171 5.248 3.257 7.875h-6.135zM24.869 35.823c-1.538-1.012-3.481-1.493-5.562-1.709 2.482-1.037 6.313-4.066 5.932-8.369-.619-6.961-4.455-9.092-10.625-9.608H0v.429c1.665 0 3.014.52 3.014 3.018v33.25c0 2.498-1.349 3.018-3.014 3.018v.424l17.095-.014c5.653-.203 8.82-2.439 10.641-6.719 1.868-4.402 1.31-10.987-2.867-13.72zM7.808 17.159c4.96.309 10.262-.855 12.863 6.459 1.314 3.689-.099 8.574-3.72 9.924-3.253 1.21-9.025.891-9.144.912l.001-17.295zm15.716 33.727c-1.025 2.997-3.803 4.299-7.484 4.299-4.876 0-8.076-.36-8.232-7.422V35.671c.787-.016 6.954-.248 11.738 1.213 5.183 1.579 5.396 9.856 3.978 14.002z"/><g><path d="M128.884 44.845c.777 16.23 24.077 14.301 24.804-.867.774-16.19-24.078-14.274-24.804.867zm9.466 9.718c-4.316-1.662-6.424-6.268-6.632-10.586.311-6.463 5.229-12.52 12.502-9.717 4.317 1.663 6.426 6.269 6.632 10.584.319 6.624-5.907 12.26-12.502 9.719zM197.261 56.093c-.983 0-1.775-.305-1.78-1.77V34.512c0-1.475.794-1.78 1.778-1.78v-.254h-6.396v.254c.984 0 1.781.306 1.781 1.78v19.799c0 1.477-.799 1.781-1.781 1.781v.254h6.398v-.253zM124.687 44.681c.648 0 .781.35.781.781h.201v-2.636h-.201c0 .43-.133.778-.781.778h-8.225V33.551h7.629c2.105 0 2.542 1.139 2.542 2.543h.372v-3.616h-15.053v.37c.93 0 1.684.287 1.684 1.682v19.691c0 1.395-.754 1.682-1.684 1.682v.371h16.256v-3.618h-.369c0 1.405-.436 2.542-2.543 2.542h-6.293c-1.401 0-2.541-.437-2.541-2.542V44.68l8.225.001zM175.878 56.347H185.155c2.627-1.324 4.68-3.656 4.797-6.48.223-5.318-4.875-6.264-8.611-7.873-2.393-1.032-3.984-1.807-3.764-4.723.23-3.014 3.049-4.179 4.879-4.263 1.92-.087 3.436.676 4.232 1.338 1.166.966 1.595 1.54 1.595 1.54s.196-.027.194-.033l-1.023-2.861c-2.684-1.021-4.727-1.307-7.271-.316-2.635 1.022-4.341 3.637-3.996 7.02.505 4.952 5.813 5.201 9.335 6.971 3.496 1.76 3.425 7.439-.891 8.523-2.242.564-5.525-.092-7.354-1.833-1.415-1.44-1.523-3.581-1.53-3.896l-.003-.041h-.246v6.928h.38zM169.635 44.183c-.916-.601-2.072-.889-3.31-1.016 1.478-.617 3.754-2.416 3.527-4.977-.367-4.139-2.647-5.406-6.317-5.712h-8.688v.255c.989 0 1.79.309 1.79 1.793v19.771c0 1.484-.801 1.793-1.79 1.793v.256l10.164-.012c3.359-.118 5.244-1.447 6.325-3.993 1.111-2.615.781-6.532-1.701-8.158zm-10.15-11.098c2.951.184 6.102-.509 7.653 3.842.779 2.193-.062 5.098-2.213 5.899-1.934.72-5.368.53-5.44.544V33.085zm9.347 20.056c-.608 1.78-2.26 2.556-4.449 2.556-2.9 0-4.804-.213-4.897-4.412v-7.193c.469-.006 4.136-.146 6.982.723 3.081.936 3.207 5.86 2.364 8.326zM102.095 22.39v.363c1.408 0 2.551.439 2.551 2.551v30.308c0 5.235-.297 12.639-8.076 10.999 0 0-.005.394 0 .394 4.186 1.087 6.759 1.306 9.846-2.112 1.346-1.491 2.287-4.373 2.287-9.033V25.305c0-2.111 1.143-2.551 2.552-2.551v-.364h-9.16z"/></g><g stroke="#000" stroke-width=".1" stroke-miterlimit="10"><path d="M121.952 19.838l-.188.532h-.041a.55.55 0 0 0 .012-.128c0-.047-.016-.076-.045-.088a.35.35 0 0 0-.141-.02h-1.032v3.763c0 .155.011.261.034.317.021.058.053.094.091.107a.53.53 0 0 0 .187.023v.045h-1.072v-.045c.135-.01.219-.039.252-.087.035-.048.051-.147.051-.298v-3.826h-.988a.574.574 0 0 0-.196.02c-.03.012-.046.045-.046.097 0 .026.008.065.021.119h-.04l-.188-.532h.041c.031.072.063.115.096.131a.575.575 0 0 0 .202.021h2.626a.854.854 0 0 0 .225-.021c.045-.016.08-.059.102-.131h.037zM125.397 22.195h-2.174v1.691c0 .158.006.26.02.304s.039.081.076.11c.036.029.1.045.191.045v.045h-1.023v-.045c.186.014.279-.087.279-.302v-3.536c0-.201-.015-.328-.045-.383-.029-.053-.107-.084-.234-.09v-.044h1.023v.045c-.112.008-.189.032-.229.072s-.059.121-.059.245v1.72h2.174v-1.574c0-.179-.014-.301-.041-.365s-.105-.098-.232-.098v-.045h1.01v.045a.42.42 0 0 0-.178.031c-.039.021-.066.054-.08.098s-.021.155-.021.334v3.376c0 .173.008.28.021.323s.039.078.074.106.098.042.184.042v.045h-1.01v-.045c.109 0 .182-.025.219-.074.037-.051.055-.185.055-.403v-1.673zM126.897 20.041v-.051h2.489v.607h-.04c-.054-.226-.1-.357-.137-.397s-.126-.06-.27-.06h-1.307v1.974h1.213c.12 0 .195-.013.229-.037a.14.14 0 0 0 .051-.108h.04v.414h-.04c-.009-.058-.031-.096-.063-.116-.033-.021-.095-.03-.185-.03h-1.244v1.359c0 .205.018.354.052.443.033.091.087.147.163.17.073.023.186.035.336.035h.697c.223 0 .363-.009.426-.025a.314.314 0 0 0 .157-.102c.042-.05.075-.16.1-.33h.04v.604h-2.707v-.045a.406.406 0 0 0 .209-.059c.047-.033.07-.117.07-.256V20.48c0-.161-.012-.274-.037-.34-.025-.066-.105-.099-.242-.099zM134.329 19.926c.556 0 1.01.188 1.361.563.354.375.531.844.531 1.405 0 .723-.205 1.331-.613 1.825-.408.493-.951.74-1.626.74-.549 0-.997-.199-1.347-.598s-.524-.876-.524-1.434c0-.376.084-.762.253-1.158.168-.396.422-.72.761-.97.339-.248.74-.373 1.204-.373zm-.017 4.301c.273 0 .543-.082.808-.244.266-.162.474-.386.626-.67.152-.285.229-.578.229-.879a2.26 2.26 0 0 0-.308-1.162 2.294 2.294 0 0 0-.798-.818c-.328-.196-.631-.295-.907-.295-.393 0-.749.164-1.069.492-.319.329-.479.737-.479 1.225 0 .623.194 1.172.586 1.643.389.471.827.708 1.312.708zM136.949 20.035v-.045h1.124c.283 0 .49.008.617.021a.992.992 0 0 1 .392.139c.134.079.234.186.303.32s.101.299.101.494c0 .224-.059.437-.18.639s-.292.373-.513.513l.28.478c.061.119.223.381.484.785.263.403.466.649.609.738a.8.8 0 0 0 .416.133c.133 0 .285-.057.457-.17l.018.059c-.216.195-.495.293-.839.293a.845.845 0 0 1-.591-.226c-.166-.151-.451-.564-.86-1.241a.02.02 0 0 1-.005-.012l-.398-.681-.354.013h-.32v1.682c0 .135.016.232.049.291.032.059.109.088.231.088v.045h-1.021v-.045c.127-.006.207-.036.238-.09s.047-.163.047-.328v-3.495a.865.865 0 0 0-.04-.282c-.027-.075-.108-.114-.245-.116zm.741.072v2.063h.416c.326 0 .568-.085.727-.257.158-.171.236-.396.236-.675 0-.271-.077-.526-.232-.769s-.43-.363-.819-.363h-.328zM142.668 19.99v.045c-.052-.006-.109.004-.173.027s-.102.059-.113.104-.018.154-.018.325v3.375c0 .184.006.295.021.336a.197.197 0 0 0 .077.102c.039.027.107.041.206.041v.045h-1.056v-.045c.132 0 .215-.029.247-.086s.048-.186.048-.386V20.53c0-.209-.018-.346-.055-.41-.034-.064-.115-.094-.24-.086v-.044h1.056zM147.275 24.346v.045h-1.597c-.307 0-.574-.037-.805-.111a2.039 2.039 0 0 1-.704-.42c-.239-.205-.433-.462-.581-.769s-.222-.62-.222-.94c0-.351.093-.7.278-1.049.186-.348.449-.631.791-.85a2.12 2.12 0 0 1 1.164-.326c.389 0 .801.096 1.234.286l.164.508h-.041a1.603 1.603 0 0 0-.564-.485 1.656 1.656 0 0 0-.799-.193c-.511 0-.929.215-1.256.641-.325.428-.487.958-.487 1.591 0 .263.026.497.08.704.054.205.154.408.303.609.147.199.306.347.476.441.168.095.358.16.568.197s.375.053.5.049l.213-.006c.239-.01.39-.035.449-.074.061-.04.091-.142.091-.305v-.666c0-.13-.024-.217-.073-.262s-.117-.064-.206-.059v-.045h1.023v.045c-.114 0-.191.025-.229.075-.039.05-.058.146-.058.286v.691c0 .139.017.238.05.299s.093.092.181.092h.057zM148.94 19.99v.045c-.051-.006-.108.004-.172.027s-.102.059-.113.104-.018.154-.018.325v3.375c0 .184.006.295.02.336s.04.075.079.102c.038.027.106.041.204.041v.045h-1.055v-.045c.132 0 .215-.029.247-.086s.048-.186.048-.386V20.53c0-.209-.018-.346-.055-.41-.034-.064-.115-.094-.24-.086v-.044h1.055zM152.919 19.99h.767v.045c-.117.004-.197.031-.242.082s-.067.158-.067.322v4.004l-3.158-3.736v3.254c0 .104.006.18.021.229.015.051.035.084.062.102a.619.619 0 0 0 .202.055v.045h-.761v-.045c.136 0 .22-.027.254-.081.033-.054.05-.183.05-.385v-2.976c0-.261-.033-.474-.099-.639s-.216-.242-.452-.23v-.046h.744l2.967 3.512v-3.105c0-.166-.027-.269-.08-.306a.366.366 0 0 0-.207-.056v-.045zM156.37 22.365h-1.162l-.599 1.66a1.093 1.093 0 0 0-.063.221c0 .066.045.1.133.1v.045h-.588v-.045c.078 0 .145-.021.198-.064s.112-.154.177-.334l1.436-4.021h.072l1.41 3.885c0 .02.035.113.109.282.072.169.182.253.33.253v.045h-.924v-.045c.084 0 .126-.037.126-.111a.79.79 0 0 0-.062-.238.1.1 0 0 1-.019-.039c-.005-.02-.007-.029-.009-.029l-.565-1.565zm-1.125-.123h1.072l-.535-1.498-.537 1.498zM158.248 24.391v-.045c.122 0 .204-.026.24-.078.037-.052.056-.141.056-.266v-3.6a.655.655 0 0 0-.043-.275c-.029-.057-.115-.088-.259-.092v-.045h1.063v.045c-.099 0-.168.015-.206.043a.193.193 0 0 0-.079.098c-.013.038-.02.124-.02.258v3.088c0 .264.058.451.171.56.115.108.312.163.588.163h.484c.232 0 .402-.064.512-.191.107-.127.168-.367.181-.72h.04v1.058h-2.728zM165.538 20.048l.189.55-.032.006c0-.002-.05-.061-.149-.177-.1-.115-.213-.204-.341-.267s-.273-.095-.435-.095c-.271 0-.485.087-.645.259a.892.892 0 0 0-.237.623c0 .16.037.302.112.422.074.121.229.232.466.337.406.152.685.267.834.344.15.076.294.206.434.39.139.183.208.417.208.703 0 .119-.013.234-.037.342a1.208 1.208 0 0 1-.121.313 1.407 1.407 0 0 1-.2.274.926.926 0 0 1-.238.188c-.08.043-.208.076-.382.098s-.289.033-.344.033h-1.057v-1.279h.041c.002.425.093.721.269.888s.448.251.819.251c.337 0 .593-.089.768-.266a.881.881 0 0 0 .264-.64.78.78 0 0 0-.093-.387.924.924 0 0 0-.255-.28c-.109-.081-.316-.18-.621-.295-.303-.119-.516-.223-.639-.311s-.227-.222-.308-.4a1.273 1.273 0 0 1-.124-.544c0-.341.105-.626.316-.856.209-.23.486-.346.828-.346.133 0 .275.017.43.051a2.105 2.105 0 0 1 .28.071zM167.638 19.99v.045c-.052-.006-.109.004-.173.027s-.103.059-.113.104a1.635 1.635 0 0 0-.018.325v3.375c0 .184.007.295.021.336s.039.075.078.102c.038.027.105.041.205.041v.045h-1.056v-.045c.132 0 .214-.029.247-.086.032-.057.048-.186.048-.386V20.53c0-.209-.018-.346-.054-.41-.035-.064-.117-.094-.241-.086v-.044h1.056zM171.615 19.99h.767v.045c-.117.004-.197.031-.242.082s-.067.158-.067.322v4.004l-3.158-3.736v3.254c0 .104.007.18.021.229.015.051.035.084.062.102a.619.619 0 0 0 .202.055v.045h-.761v-.045c.135 0 .221-.027.254-.081s.05-.183.05-.385v-2.976c0-.261-.033-.474-.099-.639-.066-.165-.217-.242-.453-.23v-.046h.745l2.968 3.512v-3.105c0-.166-.027-.269-.082-.306a.36.36 0 0 0-.206-.056v-.045zM176.52 20.212l.148.466h-.04c-.383-.424-.834-.637-1.354-.637-.539 0-.975.179-1.307.535a1.824 1.824 0 0 0-.499 1.293c0 .313.073.672.222 1.078s.382.74.699 1.002c.32.262.705.393 1.16.393a2.5 2.5 0 0 0 .875-.159c.285-.106.498-.249.638-.429l.036.012-.277.473c-.448.107-.739.171-.873.191-.133.02-.312.029-.536.029-.829 0-1.423-.214-1.78-.641-.357-.428-.537-.938-.537-1.533 0-.402.093-.789.275-1.16.185-.372.449-.664.795-.879.346-.214.74-.32 1.186-.32.222 0 .414.021.576.066s.297.092.405.139l.177.075a.027.027 0 0 1 .011.006zM177.687 20.041v-.051h2.488v.607h-.039c-.054-.226-.1-.357-.136-.397-.038-.04-.127-.06-.271-.06h-1.307v1.974h1.213c.119 0 .196-.013.229-.037a.14.14 0 0 0 .051-.108h.039v.414h-.039c-.01-.058-.03-.096-.063-.116s-.095-.03-.184-.03h-1.245v1.359c0 .205.018.354.051.443.033.091.089.147.163.17.073.023.187.035.337.035h.697c.223 0 .364-.009.426-.025a.323.323 0 0 0 .157-.102c.042-.05.075-.16.099-.33h.041v.604h-2.707v-.045c.092-.006.162-.025.209-.059s.07-.117.07-.256V20.48c0-.161-.012-.274-.037-.34-.026-.066-.106-.099-.242-.099zM183.065 17.459l1.234-.852h.075v7.077c0 .276.034.45.105.521.07.071.232.106.488.106v.078h-1.931v-.078c.137 0 .251-.012.34-.034.092-.022.158-.085.199-.188.043-.104.063-.265.063-.482V17.9c0-.149-.011-.269-.035-.358-.022-.09-.084-.135-.184-.135-.084 0-.202.044-.355.13v-.078zM187.025 24.494l-.047-.146c.767-.204 1.347-.476 1.739-.815s.723-.781.991-1.325.421-1.133.458-1.767l-.019-.021c-.194.412-.464.722-.812.927-.348.207-.706.31-1.078.31-.592 0-1.092-.237-1.5-.711s-.613-1.063-.613-1.771c0-.705.221-1.311.662-1.813s.979-.755 1.615-.755c.711 0 1.316.305 1.817.914.5.609.749 1.37.749 2.284 0 1.142-.339 2.153-1.019 3.032-.678.88-1.658 1.433-2.943 1.657zm1.716-3.283c.374 0 .699-.153.975-.459.276-.307.414-.657.414-1.052 0-.63-.203-1.255-.607-1.876-.405-.621-.877-.932-1.412-.932-.391 0-.706.156-.949.467a1.72 1.72 0 0 0-.365 1.086c0 .643.186 1.265.557 1.865.37.6.833.901 1.387.901zM194.296 20.377c-.445-.305-.74-.519-.885-.642a1.83 1.83 0 0 1-.404-.537 1.623 1.623 0 0 1-.188-.774c0-.471.18-.891.54-1.262.359-.369.861-.555 1.503-.555.59 0 1.045.142 1.365.426.321.283.482.652.482 1.105 0 .775-.486 1.411-1.455 1.91.64.426 1.095.809 1.366 1.146.271.338.406.747.406 1.228 0 .627-.231 1.129-.694 1.506-.463.378-1.029.566-1.699.566-.655 0-1.189-.174-1.604-.522-.414-.349-.622-.802-.622-1.359 0-.472.15-.876.447-1.214s.779-.678 1.442-1.022zm.293.178l-.078-.062a3.468 3.468 0 0 0-.946.71c-.288.299-.432.674-.432 1.125 0 .48.171.924.513 1.326.343.404.752.605 1.229.605.37 0 .718-.14 1.041-.42.324-.279.486-.645.486-1.094 0-.359-.107-.693-.318-1.004-.214-.307-.712-.704-1.495-1.186zm.46-.634c.64-.404.958-.925.958-1.561 0-.422-.137-.773-.408-1.056a1.352 1.352 0 0 0-1.005-.422c-.337 0-.637.098-.901.293-.264.195-.396.48-.396.854 0 .232.051.434.152.604.101.171.337.395.708.669.369.276.666.482.892.619zM200.445 20.377a12.867 12.867 0 0 1-.886-.642 1.83 1.83 0 0 1-.404-.537 1.623 1.623 0 0 1-.188-.774c0-.471.18-.891.539-1.262.36-.369.862-.555 1.504-.555.59 0 1.045.142 1.365.426.321.283.482.652.482 1.105 0 .775-.485 1.411-1.454 1.91.638.426 1.094.809 1.365 1.146.271.338.405.747.405 1.228 0 .627-.23 1.129-.693 1.506-.463.378-1.029.566-1.699.566-.656 0-1.189-.174-1.604-.522s-.622-.802-.622-1.359c0-.472.149-.876.447-1.214.298-.338.779-.678 1.443-1.022zm.292.178l-.078-.062a3.468 3.468 0 0 0-.946.71c-.288.299-.432.674-.432 1.125 0 .48.171.924.513 1.326.343.404.752.605 1.229.605.369 0 .718-.14 1.041-.42.324-.279.486-.645.486-1.094 0-.359-.106-.693-.318-1.004-.213-.307-.711-.704-1.495-1.186zm.46-.634c.64-.404.959-.925.959-1.561 0-.422-.137-.773-.411-1.056a1.344 1.344 0 0 0-1.003-.422c-.337 0-.638.098-.901.293s-.396.48-.396.854c0 .232.051.434.152.604.101.171.337.395.708.669.37.276.669.482.892.619z"/></g></g></svg>